<svg width="95" height="22" viewBox="0 0 95 22" fill="none" xmlns="http://www.w3.org/2000/svg">
<path d="M14.3925 11.1611C14.4027 10.3733 14.6133 9.60085 15.0046 8.91562C15.3959 8.23039 15.9552 7.65468 16.6306 7.24203C16.2016 6.63307 15.6356 6.13191 14.9776 5.77837C14.3196 5.42484 13.5877 5.22865 12.84 5.2054C11.2452 5.03903 9.69906 6.15386 8.88636 6.15386C8.05793 6.15386 6.80664 5.22192 5.45922 5.24947C4.58766 5.27746 3.73827 5.52934 2.99379 5.98058C2.24931 6.43182 1.63513 7.06702 1.2111 7.8243C-0.625697 10.9849 0.74439 15.6298 2.50389 18.1846C3.3842 19.4356 4.41304 20.833 5.75925 20.7834C7.0766 20.7291 7.5686 19.9486 9.15875 19.9486C10.7341 19.9486 11.1957 20.7834 12.5693 20.7519C13.9828 20.7291 14.8735 19.4953 15.7229 18.2325C16.3554 17.3411 16.8421 16.356 17.165 15.3135C16.3438 14.9683 15.6429 14.3905 15.1499 13.6521C14.6569 12.9136 14.3934 12.0473 14.3925 11.1611Z" fill="#07152A"/>
<path d="M11.7982 3.52623C12.569 2.60668 12.9487 1.42475 12.8567 0.231445C11.6792 0.35436 10.5915 0.913674 9.81037 1.79795C9.42844 2.22993 9.13592 2.7325 8.94954 3.27691C8.76315 3.82132 8.68656 4.3969 8.72414 4.97075C9.31311 4.97678 9.89578 4.84991 10.4283 4.59969C10.9607 4.34947 11.4292 3.98244 11.7982 3.52623Z" fill="#07152A"/>
<path d="M31.0446 15.1127H26.5491L25.4695 18.2809H23.5654L27.8235 6.55957H29.8018L34.0599 18.2809H32.1233L31.0446 15.1127ZM27.0147 13.6508H30.5782L28.8215 8.50914H28.7723L27.0147 13.6508Z" fill="#07152A"/>
<path d="M43.256 14.0089C43.256 16.6645 41.8258 18.3707 39.6675 18.3707C39.1208 18.3991 38.5771 18.274 38.0986 18.0095C37.6202 17.7451 37.2263 17.3521 36.9621 16.8756H36.9212V21.1084H35.1562V9.73552H36.8647V11.1569H36.8972C37.1735 10.6826 37.574 10.2917 38.0561 10.0256C38.5383 9.7596 39.0839 9.62844 39.6351 9.64611C41.8174 9.64612 43.256 11.3606 43.256 14.0089ZM41.4418 14.0089C41.4418 12.2787 40.5422 11.1412 39.1695 11.1412C37.8209 11.1412 36.9138 12.3027 36.9138 14.0089C36.9138 15.7307 37.8209 16.8839 39.1695 16.8839C40.5422 16.8839 41.4418 15.7547 41.4418 14.0089Z" fill="#07152A"/>
<path d="M52.7198 14.0089C52.7198 16.6645 51.2897 18.3707 49.1314 18.3707C48.5847 18.3991 48.041 18.274 47.5625 18.0095C47.084 17.7451 46.6901 17.3521 46.426 16.8756H46.3851V21.1083H44.6201V9.73551H46.3285V11.1569H46.361C46.6373 10.6826 47.0379 10.2917 47.52 10.0256C48.0021 9.7596 48.5478 9.62844 49.0989 9.64611C51.2813 9.64611 52.7198 11.3606 52.7198 14.0089ZM50.9057 14.0089C50.9057 12.2787 50.006 11.1412 48.6333 11.1412C47.2848 11.1412 46.3777 12.3027 46.3777 14.0089C46.3777 15.7307 47.2848 16.8839 48.6333 16.8839C50.006 16.8839 50.9057 15.7547 50.9057 14.0089H50.9057Z" fill="#07152A"/>
<path d="M58.9747 15.0152C59.1055 16.1775 60.2417 16.9407 61.7943 16.9407C63.282 16.9407 64.3523 16.1775 64.3523 15.1294C64.3523 14.2196 63.7067 13.6749 62.1783 13.3015L60.6498 12.9356C58.4841 12.4157 57.4787 11.4091 57.4787 9.77574C57.4787 7.75337 59.2521 6.36426 61.7702 6.36426C64.2623 6.36426 65.9707 7.75337 66.0282 9.77574H64.2465C64.1399 8.60601 63.1669 7.89994 61.7451 7.89994C60.3233 7.89994 59.3503 8.61432 59.3503 9.65408C59.3503 10.4828 59.9718 10.9704 61.4919 11.3437L62.7913 11.6607C65.2111 12.2295 66.2165 13.1955 66.2165 14.91C66.2165 17.1029 64.4589 18.4763 61.6635 18.4763C59.048 18.4763 57.2821 17.1352 57.168 15.0151L58.9747 15.0152Z" fill="#07152A"/>
<path d="M70.0265 7.71387V9.73624H71.6617V11.1254H70.0265V15.8365C70.0265 16.5684 70.3539 16.9095 71.0727 16.9095C71.2668 16.9061 71.4606 16.8926 71.6533 16.8689V18.2497C71.3301 18.3097 71.0017 18.3369 70.673 18.3308C68.9321 18.3308 68.2532 17.681 68.2532 16.0236V11.1254H67.0029V9.73624H68.2531V7.71387H70.0265Z" fill="#07152A"/>
<path d="M72.6084 14.0093C72.6084 11.3205 74.2018 9.63086 76.6865 9.63086C79.1796 9.63086 80.7656 11.3204 80.7656 14.0093C80.7656 16.7055 79.188 18.3877 76.6865 18.3877C74.186 18.3877 72.6084 16.7055 72.6084 14.0093ZM78.9672 14.0093C78.9672 12.1648 78.1167 11.0762 76.6865 11.0762C75.2564 11.0762 74.4068 12.1731 74.4068 14.0093C74.4068 15.8611 75.2564 16.9414 76.6865 16.9414C78.1167 16.9414 78.9672 15.8611 78.9672 14.0093H78.9672Z" fill="#07152A"/>
<path d="M82.2207 9.73544H83.9041V11.19H83.9449C84.0588 10.7357 84.3266 10.3342 84.7033 10.0531C85.0799 9.77189 85.5425 9.62815 86.0132 9.64602C86.2166 9.64531 86.4194 9.66727 86.6179 9.71147V11.3522C86.3611 11.2742 86.0933 11.2384 85.8249 11.2462C85.5685 11.2359 85.3129 11.2808 85.0756 11.3779C84.8383 11.475 84.625 11.622 84.4502 11.8088C84.2755 11.9956 84.1435 12.2178 84.0633 12.46C83.9831 12.7023 83.9567 12.959 83.9857 13.2124V18.2812H82.2207L82.2207 9.73544Z" fill="#07152A"/>
<path d="M94.7546 15.7717C94.5171 17.3231 92.997 18.3877 91.0521 18.3877C88.5506 18.3877 86.998 16.7221 86.998 14.0498C86.998 11.3693 88.559 9.63086 90.9779 9.63086C93.3568 9.63086 94.8529 11.255 94.8529 13.8461V14.4471H88.7797V14.5531C88.7517 14.8676 88.7913 15.1845 88.896 15.4826C89.0006 15.7807 89.1679 16.0533 89.3867 16.2822C89.6054 16.5112 89.8707 16.6912 90.1649 16.8105C90.4591 16.9297 90.7754 16.9853 91.0929 16.9737C91.51 17.0125 91.9285 16.9165 92.2863 16.7C92.6441 16.4834 92.922 16.1578 93.0786 15.7717L94.7546 15.7717ZM88.7881 13.2212H93.0869C93.1028 12.9384 93.0597 12.6554 92.9602 12.39C92.8608 12.1245 92.7073 11.8824 92.5092 11.6787C92.3112 11.4751 92.0729 11.3143 91.8094 11.2065C91.5459 11.0987 91.2628 11.0462 90.9779 11.0522C90.6904 11.0505 90.4055 11.1054 90.1396 11.2137C89.8736 11.322 89.6318 11.4816 89.4283 11.6833C89.2247 11.8849 89.0633 12.1246 88.9534 12.3886C88.8435 12.6525 88.7873 12.9355 88.7881 13.2212V13.2212Z" fill="#07152A"/>
</svg>
