<svg width="73" height="15" viewBox="0 0 73 15" fill="none" xmlns="http://www.w3.org/2000/svg">
<path d="M56.2632 11.3563H57.8352V1.10092H56.2632V11.3563ZM70.4224 4.79512L68.6204 9.24134H68.5665L66.6962 4.79512H65.0029L67.8074 11.0095L66.2084 14.4662H67.8487L72.1705 4.79512H70.4224ZM61.5075 10.1915C60.9919 10.1915 60.2741 9.94085 60.2741 9.3205C60.2741 8.52895 61.1688 8.2255 61.9405 8.2255C62.6322 8.2255 62.9565 8.37062 63.3769 8.56873C63.2548 9.51854 62.4148 10.1915 61.5075 10.1915ZM61.697 4.57076C60.5589 4.57076 59.3803 5.05911 58.8925 6.14099L60.2876 6.70818C60.5858 6.14099 61.141 5.95608 61.724 5.95608C62.537 5.95608 63.3634 6.43131 63.3769 7.2757V7.38111C63.0922 7.22278 62.4831 6.98537 61.7375 6.98537C60.2337 6.98537 58.7021 7.78998 58.7021 9.29417C58.7021 10.6664 59.9355 11.5505 61.3171 11.5505C62.3744 11.5505 62.9565 11.0887 63.323 10.5478H63.3769V11.3393H64.8942V7.40736C64.8942 5.58692 63.4991 4.57076 61.697 4.57076ZM51.9818 6.04353H49.7459V2.52825H51.9818C53.157 2.52825 53.8243 3.47575 53.8243 4.28585C53.8243 5.0806 53.157 6.04353 51.9818 6.04353ZM51.9414 1.10092H48.1747V11.3563H49.7459V7.47086H51.9414C53.6836 7.47086 55.3963 6.24255 55.3963 4.28585C55.3963 2.32923 53.6836 1.10092 51.9414 1.10092ZM31.4014 10.1934C30.3153 10.1934 29.4061 9.30795 29.4061 8.09186C29.4061 6.86298 30.3153 5.96412 31.4014 5.96412C32.4736 5.96412 33.315 6.86298 33.315 8.09186C33.315 9.30795 32.4736 10.1934 31.4014 10.1934ZM33.2064 5.36937H33.1521C32.7993 4.95977 32.1204 4.58971 31.2655 4.58971C29.4739 4.58971 27.8318 6.12269 27.8318 8.09186C27.8318 10.0479 29.4739 11.5678 31.2655 11.5678C32.1204 11.5678 32.7993 11.1976 33.1521 10.775H33.2064V11.2771C33.2064 12.6122 32.4736 13.3258 31.2928 13.3258C30.3292 13.3258 29.7319 12.6515 29.4874 12.0834L28.1168 12.6384C28.5104 13.5635 29.5555 14.7002 31.2928 14.7002C33.1386 14.7002 34.6994 13.6427 34.6994 11.0656V4.80119H33.2064V5.36937ZM35.7851 11.3563H37.3595V1.10059H35.7851V11.3563ZM39.6805 7.97299C39.6397 6.62483 40.7527 5.93779 41.5533 5.93779C42.1781 5.93779 42.7072 6.24156 42.8832 6.67807L39.6805 7.97299ZM44.5665 6.81007C44.2682 6.03008 43.3584 4.58971 41.499 4.58971C39.6532 4.58971 38.1196 6.00383 38.1196 8.07874C38.1196 10.0348 39.6397 11.5678 41.6754 11.5678C43.318 11.5678 44.2682 10.5897 44.6617 10.0216L43.4401 9.22846C43.0332 9.81009 42.4763 10.1934 41.6754 10.1934C40.8747 10.1934 40.3048 9.83642 39.9382 9.13617L44.7291 7.20646L44.5665 6.81007ZM6.39616 5.66026V7.14042H10.0335C9.92488 7.97299 9.63988 8.58087 9.20551 9.00385C8.67636 9.51944 7.84839 10.0876 6.39616 10.0876C4.15665 10.0876 2.40594 8.32993 2.40594 6.14927C2.40594 3.96862 4.15665 2.21069 6.39616 2.21069C7.60416 2.21069 8.48613 2.67337 9.13769 3.26812L10.2099 2.22414C9.30062 1.37812 8.09254 0.730531 6.39616 0.730531C3.32868 0.730531 0.75 3.16238 0.75 6.14927C0.75 9.13617 3.32868 11.5678 6.39616 11.5678C8.0521 11.5678 9.30063 11.0394 10.2777 10.0479C11.2821 9.06988 11.5944 7.69547 11.5944 6.58545C11.5944 6.24156 11.5673 5.92466 11.5128 5.66026H6.39616ZM15.7297 10.1934C14.6437 10.1934 13.7071 9.32108 13.7071 8.07874C13.7071 6.82319 14.6437 5.96412 15.7297 5.96412C16.8153 5.96412 17.7518 6.82319 17.7518 8.07874C17.7518 9.32108 16.8153 10.1934 15.7297 10.1934ZM15.7297 4.58971C13.7479 4.58971 12.1327 6.05666 12.1327 8.07874C12.1327 10.0876 13.7479 11.5678 15.7297 11.5678C17.7111 11.5678 19.3262 10.0876 19.3262 8.07874C19.3262 6.05666 17.7111 4.58971 15.7297 4.58971ZM23.5757 10.1934C22.4901 10.1934 21.5534 9.32108 21.5534 8.07874C21.5534 6.82319 22.4901 5.96412 23.5757 5.96412C24.6614 5.96412 25.5979 6.82319 25.5979 8.07874C25.5979 9.32108 24.6614 10.1934 23.5757 10.1934ZM23.5757 4.58971C21.594 4.58971 19.9791 6.05666 19.9791 8.07874C19.9791 10.0876 21.594 11.5678 23.5757 11.5678C25.5571 11.5678 27.1723 10.0876 27.1723 8.07874C27.1723 6.05666 25.5571 4.58971 23.5757 4.58971Z" fill="#07152A"/>
</svg>
